<?xml version="1.0" standalone="no"?>
<!DOCTYPE svg PUBLIC "-//W3C//DTD SVG 1.1//EN" "http://www.w3.org/Graphics/SVG/1.1/DTD/svg11.dtd" >
<svg xmlns="http://www.w3.org/2000/svg">
<metadata>Generated by IcoMoon</metadata>
<defs>
<font id="icomoon" horiz-adv-x="1024">
<font-face units-per-em="1024" ascent="960" descent="-64" />
<missing-glyph horiz-adv-x="1024" />
<glyph unicode="&#x20;" horiz-adv-x="512" d="" />
<glyph unicode="&#xe600;" horiz-adv-x="1771" d="M375.093 960v-80.772l8.076 1.344c76.283 12.115 151.222 17.050 228.853 17.949 81.218-1.344 113.974-7.627 197.438-17.496-83.015 2.24-135.067 4.033-218.531 1.794-67.309-3.141-132.824-10.771-199.234-25.129l-16.604-4.040v-314.107c42.18 13.457 96.478 12.112 137.762-4.938 52.052-21.096 69.102-60.58 31.858-91.992-35.448-29.618-112.18-39.038-169.616-18.844v-172.315c289.876-165.131 654.694-237.378 985.857-184.876l10.319 1.797v891.625h-996.176zM996.132 735.636c14.807 14.358 56.538 13.906 94.232 0 37.691-13.912 60.128-37.248 48.462-52.498-12.115-15.709-56.541-17.053-96.927-1.797-41.281 15.254-60.574 40.383-45.767 54.295zM1018.569 655.76c42.176-16.155 65.512-43.973 50.705-63.718-15.257-20.195-67.309-23.333-113.079-5.387-46.219 17.496-65.964 48.465-47.117 66.414 18.847 17.952 66.86 18.401 109.491 2.692zM789.268 812.365c19.293 12.115 62.823 10.771 99.616-2.692 36.346-13.463 54.744-34.553 38.143-48.465-16.155-13.46-63.272-13.46-102.76 1.348-39.038 14.811-53.849 37.248-34.999 49.809zM678.432 740.571c24.234 15.703 74.49 14.807 115.325-0.449 40.386-15.26 58.784-40.389 38.143-57.888-20.641-17.053-75.834-18.398-119.81-1.797-43.976 17.056-57.888 44.878-33.658 60.134zM535.735 648.579c31.412 20.195 91.094 20.647 136.86 3.147 45.321-17.955 63.722-48.914 36.346-71.801-26.923-22.434-93.336-26.474-143.592-6.732-50.255 20.195-61.473 54.744-29.615 75.385zM857.475 313.385c-27.372-36.799-105.003-48.917-166.478-22.883-61.925 26.025-79.424 77.181-45.321 110.387 34.553 32.756 102.757 38.143 157.95 15.703 55.193-22.437 81.67-66.863 53.849-103.206zM844.012 461.912c-52.951 21.090-72.244 59.676-47.563 83.461 25.126 23.785 81.67 26.477 129.234 7.627 48.016-18.392 73.591-52.944 53.4-79.418-20.195-26.477-82.569-32.762-135.070-11.669zM1189.53 175.62c-17.050-42.176-87.503-58.781-153.015-30.959-65.961 27.818-95.579 85.707-71.348 124.299 24.231 38.137 87.953 46.219 145.838 22.434 58.784-23.785 95.582-73.145 78.526-115.774zM1263.574 361.398c-12.119-30.516-70.001-39.94-125.643-17.506-56.092 22.44-83.913 65.512-66.863 93.34 17.499 27.369 70.45 31.855 120.709 12.112 50.705-19.745 83.913-57.885 71.798-87.946zM1317.869 497.36c-9.423-22.883-57.888-28.27-105.901-9.423-48.462 18.844-75.385 52.501-62.371 73.145 13.46 21.090 58.784 22.883 103.206 6.282 43.976-16.604 74.040-47.121 65.066-70.004zM1359.153 601.465c-7.181-17.949-48.462-20.637-91.094-4.486-43.078 15.703-67.758 43.078-57.436 59.23 10.319 16.604 49.806 17.053 89.297 2.692 39.038-14.807 66.41-39.94 59.233-57.436zM375.093 175.62v-239.62h996.176v67.758c-331.16-52.052-697.771 24.234-996.176 171.862z" />
<glyph unicode="&#xe601;" horiz-adv-x="1771" d="M544.709 442.613c-37.245-31.412-120.256-39.934-178.591-15.254-28.27 12.112-44.425 28.717-48.465 46.219-14.811-26.474-0.898-58.338 43.078-77.631 57.885-25.132 140.002-16.604 176.8 15.703 15.706 13.912 21.988 29.166 19.293 43.973-3.141-4.482-7.178-8.968-12.115-13.011zM857.475 313.385c-27.372-36.799-105.003-48.917-166.478-22.883-38.143 16.152-59.682 41.727-61.925 66.857-21.093-33.208-1.348-78.080 53.4-102.311 61.027-26.474 137.313-13.912 164.682 23.785 8.525 11.217 11.666 23.329 10.771 34.996-0.003 0-0.003-0.443-0.449-0.443zM700.42 553c10.322 8.977 13.909 19.299 11.666 30.067-0.898-0.895-1.797-2.24-3.141-3.141-26.923-22.434-93.336-26.474-143.592-6.732-27.372 11.217-43.081 26.025-46.665 41.281-17.952-21.090-4.040-50.705 39.488-68.653 49.357-20.644 115.321-16.152 142.244 7.178zM703.112 656.209c43.527-17.503 98.271-16.152 118.915 1.797 7.63 6.732 9.873 14.358 7.63 22.434-22.437-15.26-75.388-16.152-117.567 0-25.578 9.873-40.832 22.883-44.422 35.454-20.647-16.161-6.285-43.081 35.445-59.685zM814.397 740.122c39.041-14.811 85.707-14.811 101.862-0.898 5.833 5.384 7.178 11.666 4.486 18.398-20.191-9.423-61.476-8.079-96.478 4.938-22.883 8.522-37.691 20.191-41.73 30.513-0.898-0.449-1.797-0.898-2.692-1.794-18.847-12.565-4.489-35.9 34.553-51.157zM1029.786 657.104c39.937-15.703 83.91-14.807 95.579 1.351 4.036 4.938 4.036 10.768 1.797 16.598-18.847-7.627-53.4-5.83-85.261 6.289-26.923 10.316-44.872 24.231-49.36 36.789-3.141-1.344-5.833-3.141-8.076-5.381-14.811-14.361 4.489-39.937 45.321-55.646zM902.795 631.532c-1.797-1.344-3.141-2.695-4.489-4.040-18.847-18.398 0.898-49.809 46.668-67.758 45.321-18.398 96.924-15.254 112.18 5.387 4.040 5.836 5.384 12.562 3.587 19.293-21.090-13.011-65.066-13.011-104.554 2.246-30.51 11.663-49.803 29.163-53.394 44.872zM1137.93 343.892c-42.629 17.053-68.656 46.219-71.351 71.351-3.141-2.689-5.384-5.836-7.627-9.423-17.499-28.27 10.771-72.696 65.961-95.579 55.193-22.89 112.183-13.463 124.296 17.949 1.797 5.381 2.695 11.666 2.243 17.496-22.88-17.050-68.647-19.742-113.522-1.794zM967.412 443.514c5.833 7.627 8.076 16.152 6.732 24.68-24.234-21.991-81.221-26.025-130.135-6.282-34.553 13.457-54.741 34.996-57.885 54.738-23.333-24.68-4.040-63.715 47.567-85.257 52.501-21.985 113.98-15.257 133.722 12.122zM1268.059 596.979c-30.959 11.217-52.951 28.717-58.335 43.973-5.833-2.246-10.322-5.387-13.014-9.873-10.322-16.604 14.358-44.422 56.538-61.027s83.464-13.463 90.645 4.486c1.794 4.492 1.348 9.427-0.898 14.361-17.496-5.384-45.767-3.138-74.936 8.079zM1211.968 487.937c-36.346 13.906-60.574 36.346-65.063 55.639-4.486-2.689-8.076-6.279-10.319-10.322-13.017-21.090 13.457-56.089 61.476-74.932 47.563-19.293 95.579-13.912 104.554 9.423 1.797 4.938 2.246 10.322 0.898 15.709-19.748-9.876-55.646-9.43-91.546 4.482zM1036.518 144.661c-49.809 21.090-78.975 58.781-79.873 92.887-0.898-1.351-2.246-3.141-3.144-4.492-23.782-39.488 5.833-99.17 70.902-127.434 64.614-28.723 134.618-11.666 151.222 31.855 3.138 7.633 4.486 15.26 4.036 22.883-26.028-30.507-86.605-39.93-143.143-15.7zM1382.036 710.058c0 0 332.751-191.015 321.74-387.701s-285.924-244.727-332.508-253.979v-64.617c0 0 380.683 48.942 398.918 280.905s-334.956 406.707-388.15 425.392zM89.702 605.504c4.429 188.701 285.39 248.142 285.39 248.142v25.582c-49.148-9.632-373.006-67.309-375.083-291.9s375.083-411.707 375.083-411.707v75.837c-15.874 9.33-289.823 165.349-285.39 354.047z" />
<glyph unicode="&#xe602;" horiz-adv-x="969" d="M194.101 362.272c-33.715-21.307-37.537-72.071-6.006-112.748 31.941-41.373 84.629-52.143 115.205-25.402 28.528 24.843 26.617 73.313-2.184 109.199-28.678 35.503-75.497 48.744-107.015 28.951z" />
<glyph unicode="&#xe603;" horiz-adv-x="969" d="M414.547 331.56c21.567 18.427 17.062 57.875-8.736 88.588-19.383 23.191-46.137 36.159-68.249 34.794 15.97 10.51 20.338 32.214 9.555 56.237-14.059 31.258-49.549 56.647-80.944 57.739-32.76 0.955-50.095-24.979-36.855-59.104 13.786-35.353 53.917-63.199 87.496-61.151h0.273c-24.843-15.834-24.024-56.51 3.685-90.499 28.119-34.643 70.829-46.259 93.775-26.604z" />
<glyph unicode="&#xe604;" horiz-adv-x="969" d="M504.499 370.325c30.016-21.307 58.148-16.789 63.049 8.599 4.504 24.174-13.786 58.831-40.95 78.623-16.107 11.739-32.35 16.107-44.499 13.377 5.050 10.237 3.822 25.389-4.504 41.632-14.469 28.255-45.591 51.051-70.979 51.87-26.481 0.819-37.537-22.522-23.341-52.825 14.605-31.395 49.276-56.237 75.893-54.736 2.184 0.136 4.231 0.409 6.142 0.955-0.682-1.365-1.228-2.73-1.638-4.231-7.78-23.887 10.51-61.697 40.827-83.264z" />
<glyph unicode="&#xe605;" horiz-adv-x="969" d="M461.625 184.96c-36.172 24.283-75.62 14.046-88.315-25.675-13.513-42.315 8.736-100.722 50.095-127.203 40.813-26.071 80.671-8.463 89.011 36.159 7.767 41.646-14.878 92.696-50.791 116.72z" />
<glyph unicode="&#xe606;" horiz-adv-x="969" d="M192.736 509.418c-13.104 34.944-53.781 63.472-93.092 64.7-41.496 1.365-67.703-27.846-56.101-66.338 12.148-40.131 58.967-71.662 101.965-69.068 40.677 2.32 60.728 34.398 47.229 70.706z" />
<glyph unicode="&#xe607;" horiz-adv-x="969" d="M648.355 321.049c20.611 4.231 22.945 32.35 6.293 62.107-16.394 28.938-45.591 50.505-66.489 48.594-21.84-1.911-27.15-28.392-10.77-59.786 16.926-32.35 49.262-55.418 70.966-50.914z" />
<glyph unicode="&#xe608;" horiz-adv-x="969" d="M495.354 334.563c-31.408 22.113-64.564 17.349-74.255-12.421-10.101-31.531 10.101-78.2 45.318-101.965 34.807-23.614 68.113-13.937 74.528 19.383 5.992 31.395-14.483 73.163-45.591 95.003z" />
<glyph unicode="&#xe609;" horiz-adv-x="969" d="M831.004 69.073c-21.307 37.81-53.644 60.469-73.709 51.324-20.871-9.691-21.43-50.778 0.396-92.669 22.659-43.134 58.845-67.581 79.046-53.521 19.383 13.24 16.093 55.964-5.733 94.867z" />
<glyph unicode="&#xe60a;" horiz-adv-x="969" d="M737.776 234.919c-18.427 33.033-49.14 54.995-69.887 49.959-21.43-5.337-24.706-38.37-5.883-74.405 19.533-37.251 53.658-61.001 74.801-52.416 20.215 8.204 20.079 42.874 0.969 76.862z" />
<glyph unicode="&#xe60b;" horiz-adv-x="969" d="M625.847 109.19c-32.623 6.429-53.371-24.979-45.045-72.604 8.872-50.368 46.137-96.641 81.49-100.34 33.975-3.685 50.9 34.125 39.312 81.626-10.92 45.331-44.239 85.189-75.757 91.318z" />
<glyph unicode="&#xe60c;" horiz-adv-x="969" d="M616.974 151.654c30.849-6.675 47.351 19.929 38.206 57.725-8.736 36.049-38.206 70.72-67.021 78.91-29.757 8.586-49.399-13.377-42.71-50.914 6.961-39.462 39.571-78.746 71.525-85.721z" />
<glyph unicode="&#xe60d;" horiz-adv-x="969" d="M475.821 768.629c18.154-3.822 23.478 8.326 12.558 26.481-10.633 17.881-33.429 35.763-51.583 40.404-18.7 4.914-25.798-6.006-15.288-24.706 10.92-19.11 35.476-38.22 54.313-42.178z" />
<glyph unicode="&#xe60e;" horiz-adv-x="969" d="M677.443 600.599c-12.967 20.338-35.503 37.81-51.187 39.585-3.412 0.409-6.142 0-8.477-1.092 1.925 1.501 3.139 3.685 3.699 6.415 2.334 12.694-11.602 35.080-31.258 50.368-19.779 15.424-38.902 18.7-42.574 6.961-0.833-2.593-0.833-5.733-0.15-9.282-1.092 3.685-3.003 7.78-5.446 12.012-11.889 19.656-35.503 38.083-53.781 41.632-18.837 3.549-25.116-9.828-13.377-30.576 12.012-21.294 37.674-40.95 56.51-43.407 13.24-1.774 19.233 5.596 16.776 17.472 3.699-12.558 15.438-28.255 30.849-40.131 15.302-11.739 29.484-16.107 37.141-12.421-6.429-4.914-5.596-17.472 3.958-33.033 13.24-21.84 37.537-40.54 53.644-41.086 15.397-0.682 16.762 15.97 3.672 36.582z" />
<glyph unicode="&#xe60f;" horiz-adv-x="969" d="M801.384 558.967c11.725-0.546 10.633 14.059-2.047 32.214-12.285 17.745-31.545 33.033-43.407 34.398-12.285 1.365-12.421-12.421 0.136-30.985 12.817-19.11 33.292-35.217 45.318-35.626z" />
<glyph unicode="&#xe610;" horiz-adv-x="969" d="M693.673 599.37c12.967-20.338 35.353-37.537 49.14-38.083 13.254-0.546 13.254 14.878 0.423 34.261-12.708 18.973-33.456 35.217-46.969 36.718-14.059 1.638-15.411-12.967-2.593-32.896z" />
<glyph unicode="&#xe611;" horiz-adv-x="969" d="M426.559 853.258c18.018-4.914 24.16 4.914 14.196 21.567-9.828 16.38-31.668 33.715-49.686 39.312-18.564 5.733-26.344-3.003-16.653-19.929 9.814-17.335 33.429-35.899 52.143-40.95z" />
<glyph unicode="&#xe612;" horiz-adv-x="969" d="M520.333 801.798c-19.246 10.374-32.5 7.098-29.224-7.644 3.276-15.424 22.795-36.718 42.874-47.092 19.779-10.101 31.941-5.46 27.573 9.828-4.109 14.878-22.399 34.671-41.223 44.908z" />
<glyph unicode="&#xe613;" horiz-adv-x="969" d="M593.36 708.569c19.246-15.015 36.582-17.881 38.629-6.688 2.047 10.783-10.934 30.712-29.088 45.045s-35.49 18.291-38.629 8.19c-3.262-10.374 9.705-31.395 29.088-46.546z" />
<glyph unicode="&#xe614;" horiz-adv-x="969" d="M515.269 818.314c18.564-10.101 30.316-7.098 26.481 6.279-3.549 12.967-20.761 31.395-38.479 41.496-18.168 10.237-30.862 8.463-27.996-4.504 2.866-13.24 21.021-32.896 39.994-43.27z" />
<glyph unicode="&#xe615;" horiz-adv-x="969" d="M728.494 659.566c6.675 4.914-0.287 21.84-15.302 37.81s-33.033 25.798-40.54 21.84c-7.767-3.958-1.501-20.884 14.196-37.947 15.834-16.926 34.671-26.617 41.646-21.703z" />
<glyph unicode="&#xe616;" horiz-adv-x="969" d="M694.219 634.86c7.78 5.733 0.819 24.297-15.288 41.632-15.97 17.199-35.749 27.573-44.499 23.068-9.145-4.641-3.017-23.341 13.923-41.769 16.926-18.564 37.674-28.665 45.864-22.932z" />
<glyph unicode="&#xe617;" horiz-adv-x="969" d="M605.372 756.753c17.745-14.059 33.579-17.472 35.353-7.917 1.774 9.282-10.374 27.436-27.15 40.813-16.789 13.513-32.76 17.745-35.503 9.145-2.866-8.872 9.418-27.846 27.3-42.042z" />
<glyph unicode="&#xe618;" horiz-adv-x="969" d="M96.641 870.457c28.938-21.567 63.745-28.938 77.531-17.335 12.967 11.193 1.911 35.899-24.433 55.964-26.617 20.065-60.469 29.211-76.043 19.519-16.366-10.101-6.279-36.445 22.945-58.148z" />
<glyph unicode="&#xe619;" horiz-adv-x="969" d="M65.233 703.792c-39.312 4.368-64.7-17.881-54.6-51.051 10.647-34.398 54.054-64.564 94.867-66.202 38.629-1.501 58.694 23.614 46.819 55.145-11.589 30.439-49.672 57.875-87.086 62.107z" />
<glyph unicode="&#xe61a;" horiz-adv-x="969" d="M275.455 818.314c19.519-22.249 50.232-36.991 67.84-33.033 12.831 2.866 14.878 15.015 7.098 29.62 13.104-14.469 32.077-26.754 47.911-30.030 20.748-4.368 28.119 8.053 17.335 27.3-10.647 18.837-35.217 37.947-55.691 43.134-21.157 5.46-30.576-5.596-20.202-25.389l0.136-0.136c-18.154 20.202-46.683 34.671-64.564 32.487-18.837-2.32-19.11-21.976 0.136-43.953z" />
<glyph unicode="&#xe61b;" horiz-adv-x="969" d="M349.833 874.006c20.475-5.596 28.392 4.504 18.564 21.976-9.555 17.062-33.169 35.49-53.371 41.905-20.884 6.415-30.849-2.32-21.43-20.202 9.555-18.154 35.094-37.947 56.237-43.68z" />
<glyph unicode="&#xe61c;" horiz-adv-x="969" d="M228.349 688.777c32.35-13.513 57.602-5.187 57.329 17.335-0.273 18.564-17.745 41.496-41.359 56.237 22.795-11.739 44.772-12.967 53.371-2.047 9.964 12.967-2.593 38.493-27.846 57.739-25.525 19.383-56.101 26.208-68.386 14.605-12.967-12.148-1.092-39.448 26.89-60.196 2.593-2.047 5.323-3.822 8.053-5.596l-5.050 2.457c-30.849 14.059-58.012 8.736-60.196-12.967-2.184-22.795 23.751-53.508 57.193-67.567z" />
<glyph unicode="&#xe61d;" horiz-adv-x="969" d="M255.376 886.018c18.291 1.774 18.291 19.11 0.682 38.902-17.472 19.656-46.683 35.217-66.065 35.080-20.065-0.273-22.249-17.472-3.685-38.493 18.714-21.294 49.972-37.264 69.068-35.49z" />
<glyph unicode="&#xe61e;" horiz-adv-x="969" d="M59.923 757.982c37.401-15.697 69.614-8.872 72.617 13.923 3.003 21.84-21.84 51.187-56.101 66.884-35.353 15.97-69.478 12.558-75.484-9.145-6.415-22.795 20.461-55.555 58.967-71.662z" />
<glyph unicode="&#xe61f;" horiz-adv-x="969" d="M410.711 762.077c-21.43 4.231-30.166-9.828-18.564-31.941 2.457-4.777 5.733-9.555 9.691-14.196-4.231 4.504-9.009 8.872-14.196 12.831-24.57 18.564-51.87 23.341-61.288 9.964-9.828-14.059 3.822-42.178 30.576-61.97 5.733-4.368 11.466-7.78 17.199-10.51-5.596 2.32-11.329 3.822-16.789 4.368-25.935 3.003-37.81-15.97-25.116-42.997 12.967-27.846 46-51.87 72.208-52.962 25.252-0.955 33.852 19.792 20.611 45.727-9.418 18.291-27.573 34.944-46.273 43.816 18.564-7.371 34.398-5.869 39.858 5.187 5.187 10.783-0.682 27.573-13.65 42.861 13.923-15.015 32.896-26.617 48.457-28.665 20.884-2.73 27.3 12.694 15.424 33.988-11.739 20.884-37.401 40.54-58.148 44.499z" />
<glyph unicode="&#xe620;" horiz-adv-x="969" d="M224.663 685.638c-31.668 3.685-49.14-16.926-37.264-46.683 12.148-30.849 49.686-57.602 82.172-58.967 30.849-1.228 44.226 21.567 31.395 50.095-12.408 27.573-45.986 52.143-76.303 55.555z" />
<glyph unicode="&#xe621;" horiz-adv-x="969" d="M891.596 309.31c2.866-21.567 23.055-52.811 44.772-68.932 21.417-15.97 35.067-9.951 30.562 12.421-4.231 21.567-23.601 50.505-43.666 65.656-20.065 15.302-34.384 11.602-31.668-9.145z" />
<glyph unicode="&#xe622;" horiz-adv-x="969" d="M852.012 479.797c11.466 0.682 9.296 17.335-4.231 36.991-13.363 19.246-33.169 34.807-44.908 35.217-12.148 0.409-11.329-15.424 2.184-35.763 13.923-20.611 35.23-37.128 46.956-36.445z" />
<glyph unicode="&#xe623;" horiz-adv-x="969" d="M784.581 479.251c-9.964-0.409-13.254-10.647-7.098-27.3 8.586-22.522 31.245-47.488 50.095-55.009 18.291-7.221 25.252 5.46 15.97 27.586-9.009 21.43-29.893 44.226-47.502 52.006h0.136c13.118 0.819 12.026 18.7-1.911 39.585-13.65 20.611-35.067 37.264-48.457 37.674-13.923 0.409-14.346-16.516-0.409-38.22 10.661-16.53 26.208-30.589 39.175-36.322z" />
<glyph unicode="&#xe624;" horiz-adv-x="969" d="M863.068 414.128c9.555-22.099 31.395-46.123 48.457-52.811 16.516-6.429 21.43 6.415 11.329 27.982-9.691 21.021-30.166 43.134-46.273 50.095-16.366 7.098-22.645-3.822-13.513-25.266z" />
<glyph unicode="&#xe625;" horiz-adv-x="969" d="M872.213 325.84c-2.457 20.475-21.021 49.003-41.632 64.687-20.884 15.834-37.251 13.513-36.445-6.006 0.819-20.475 19.929-51.187 42.451-67.963 22.249-16.53 38.083-12.026 35.626 9.282z" />
<glyph unicode="&#xe626;" horiz-adv-x="969" d="M783.23 332.379c-8.477-14.469 2.716-47.488 25.798-73.573 23.205-26.208 47.911-33.592 54.736-16.789 6.538 15.97-6.006 48.048-27.586 72.071-21.28 23.737-44.772 32.077-52.948 18.291z" />
<glyph unicode="&#xe627;" horiz-adv-x="969" d="M830.595 153.989c-17.608-8.067-15.684-44.512 5.446-82.049 21.853-38.629 54.204-61.015 70.993-49.413 16.107 11.070 11.179 48.867-9.842 84.083-20.338 34.125-49.686 55.145-66.598 47.379z" />
<glyph unicode="&#xe628;" horiz-adv-x="969" d="M935.412 200.521c-22.249 24.706-44.772 31.668-50.9 15.029-6.429-17.472 7.644-54.204 31.668-81.367 24.283-27.573 47.911-33.169 52.416-13.090 4.231 19.096-10.647 54.313-33.183 79.429z" />
<glyph unicode="&#xe629;" horiz-adv-x="969" d="M701.331 481.572c-8.477 0.273-14.21-4.504-14.878-14.332-1.379-18.973 16.503-49.14 39.858-66.475 23.191-17.349 41.618-14.332 41.223 5.596-0.273 19.11-17.895 47.229-39.312 63.472l-3.563 2.593h1.379c15.288 0.955 15.561 20.338 1.228 42.997-13.937 22.113-37.387 40.131-52.962 40.54-16.23 0.546-18.291-17.745-4.095-41.223 8.040-13.377 19.656-25.389 31.122-33.169z" />
<glyph unicode="&#xe62a;" horiz-adv-x="969" d="M726.023 393.53c-15.97 26.767-42.724 46.683-60.742 45.045-18.687-1.638-21.567-25.798-5.323-54.6 16.776-29.62 46.137-51.051 64.427-47.242 17.758 3.699 18.031 29.224 1.638 56.797z" />
<glyph unicode="&#xe62b;" horiz-adv-x="969" d="M807.254 257.304c-18.018 30.166-46 50.641-63.608 46.396-18.291-4.641-18.987-34.261-0.546-67.157 19.096-33.715 49.808-55.541 67.703-48.307 17.049 6.961 15.001 38.083-3.549 69.068z" />
<glyph unicode="&#xe62c;" horiz-adv-x="997" d="M537.697 696.216c15.698-5.87 31.274 0.956 35.082 14.879 3.686 13.378-5.051 28.666-19.52 34.673-14.743 6.143-30.577 0.683-35.355-12.832-4.901-13.924 3.959-30.577 19.793-36.72z" />
<glyph unicode="&#xe62d;" horiz-adv-x="997" d="M595.18 641.067c3.549 15.425-5.733 31.942-20.763 37.676-15.289 5.87-31.533-1.502-36.038-16.927-4.791-15.971 4.778-34.127 21.145-39.723 16.272-5.733 32.093 3.14 35.655 18.974z" />
<glyph unicode="&#xe62e;" horiz-adv-x="997" d="M659.747 623.731c2.17 15.016-7.112 30.987-21.022 36.311-14.060 5.46-28.134-1.911-31.41-16.927-3.262-15.698 6.429-33.171 21.568-38.358 14.893-5.324 28.543 3.549 30.864 18.974z" />
<glyph unicode="&#xe62f;" horiz-adv-x="997" d="M650.874 688.844c-2.334-13.514 6.825-29.076 20.326-34.263 13.241-5.187 24.981 1.911 26.482 15.425 1.488 12.968-7.385 27.438-19.793 32.625-12.695 5.324-24.844-0.683-27.015-13.787z" />
<glyph unicode="&#xe630;" horiz-adv-x="997" d="M660.689 724.336c12.422-5.324 23.752 0.137 25.39 11.74 1.502 11.193-6.825 24.435-18.565 29.758-11.999 5.46-23.465 0.956-25.8-10.238-2.17-11.603 6.279-25.8 18.974-31.26z" />
<glyph unicode="&#xe631;" horiz-adv-x="997" d="M608.68 774.707c12.968-5.733 25.131-1.229 27.451 9.692 2.321 10.511-5.597 23.343-17.759 29.076-12.286 5.733-24.844 2.184-27.697-8.327-3.14-10.784 5.037-24.571 18.005-30.441z" />
<glyph unicode="&#xe632;" horiz-adv-x="997" d="M538.257 789.040c14.183-6.143 28.38-1.638 31.942 9.555 3.413 10.92-4.505 24.435-17.896 30.577-13.378 6.279-27.847 2.73-32.202-8.054-4.505-11.193 3.686-25.8 18.155-32.079z" />
<glyph unicode="&#xe633;" horiz-adv-x="997" d="M467.82 760.647c16.244-6.552 33.444-1.092 38.358 11.74 4.791 12.422-3.413 27.438-18.428 33.853-15.425 6.689-32.625 2.457-38.631-9.965-6.143-12.832 2.184-28.939 18.701-35.628z" />
<glyph unicode="&#xe634;" horiz-adv-x="997" d="M435.877 686.933c18.155-6.416 37.539 1.229 43.545 16.654 5.733 14.879-3.003 31.669-19.657 38.222-17.063 6.689-36.72 0.546-43.818-14.333-7.521-15.425 1.351-33.853 19.93-40.542z" />
<glyph unicode="&#xe635;" horiz-adv-x="997" d="M486.098 617.998c6.143 17.609-3.413 36.311-21.295 42.59-18.155 6.416-39.041-2.321-46.822-20.066-7.917-18.428 1.775-39.177 21.568-45.457 19.52-6.006 40.269 4.641 46.549 22.933z" />
<glyph unicode="&#xe636;" horiz-adv-x="997" d="M520.498 584.144c-18.019 5.733-37.949-5.051-44.637-24.981-6.825-20.749 3.549-42.59 23.206-48.050 19.37-5.324 39.041 7.644 44.228 27.984 5.051 19.657-5.187 39.314-22.797 45.047z" />
<glyph unicode="&#xe637;" horiz-adv-x="997" d="M599.261 544.285c-16.64 5.187-33.976-6.279-38.631-26.346-4.901-20.885 6.006-42.453 24.039-47.368 17.882-4.641 34.809 8.873 38.222 29.349 3.276 19.793-7.235 39.314-23.629 44.364z" />
<glyph unicode="&#xe638;" horiz-adv-x="997" d="M676.811 544.148c-14.893 4.914-29.335-5.733-32.093-24.435-2.853-19.52 8.054-39.45 24.025-44.091 15.835-4.368 29.772 8.054 31.41 27.165 1.638 18.428-8.75 36.584-23.343 41.361z" />
<glyph unicode="&#xe639;" horiz-adv-x="997" d="M734.402 574.998c-13.241 4.641-25.254-4.505-26.605-21.022-1.515-17.063 8.859-35.082 23.056-39.587 13.787-4.368 25.376 6.279 25.936 23.206 0.546 16.244-9.419 32.761-22.387 37.403z" />
<glyph unicode="&#xe63a;" horiz-adv-x="997" d="M770.044 622.366c-11.876 4.641-22.114-2.867-22.81-17.063-0.669-14.743 9.16-30.85 21.718-35.355 12.272-4.368 22.114 4.232 22.114 18.838-0.137 14.197-9.433 28.939-21.022 33.58z" />
<glyph unicode="&#xe63b;" horiz-adv-x="997" d="M776.869 681.473c-10.92 4.778-20.189-1.092-20.763-13.378-0.396-12.559 8.614-27.028 20.080-31.669 11.33-4.505 20.339 2.321 20.189 14.879-0.123 12.149-8.723 25.527-19.507 30.168z" />
<glyph unicode="&#xe63c;" horiz-adv-x="997" d="M771.546 698.263c10.634-4.778 19.097 0.546 19.097 11.603 0 10.647-8.054 22.797-18.292 27.574s-18.974 0.273-19.534-10.374c-0.382-11.057 7.931-24.025 18.729-28.803z" />
<glyph unicode="&#xe63d;" horiz-adv-x="997" d="M766.754 763.104c0.287 9.555-7.371 21.022-17.2 25.936-10.101 4.914-18.838 1.365-19.657-8.19-0.819-9.828 7.235-21.977 17.759-26.892 10.238-4.914 18.824-0.683 19.097 9.146z" />
<glyph unicode="&#xe63e;" horiz-adv-x="997" d="M737.952 808.833c0.696 8.736-6.689 19.793-16.504 24.708-9.965 5.187-18.988 2.457-20.080-6.279-1.229-9.009 6.429-20.612 16.79-25.663 10.388-5.187 19.111-1.775 19.793 7.235z" />
<glyph unicode="&#xe63f;" horiz-adv-x="997" d="M678.176 843.506c10.511-5.324 19.916-2.594 21.008 5.87 1.092 8.19-5.993 18.838-15.971 24.162-10.101 5.324-19.78 3.14-21.309-5.051-1.747-8.327 5.61-19.657 16.272-24.981z" />
<glyph unicode="&#xe640;" horiz-adv-x="997" d="M650.601 883.639c1.775 7.917-5.187 18.565-15.698 24.025-10.525 5.597-21.022 4.095-23.343-3.822-2.457-7.917 4.778-19.247 15.835-24.981 11.057-5.597 21.431-3.413 23.206 4.778z" />
<glyph unicode="&#xe641;" horiz-adv-x="997" d="M585.884 931.416c-11.18 5.87-22.947 4.641-26.073-3.14-3.126-7.917 3.959-19.52 15.835-25.527 11.74-6.006 23.206-4.095 25.8 4.095 2.457 7.781-4.505 18.701-15.562 24.571z" />
<glyph unicode="&#xe642;" horiz-adv-x="997" d="M512.457 920.359c12.818-6.416 25.936-4.641 29.485 3.549 3.413 8.054-3.413 19.384-15.575 25.663-12.149 6.279-25.527 5.324-29.608-2.594-4.382-8.054 2.716-20.203 15.698-26.619z" />
<glyph unicode="&#xe643;" horiz-adv-x="997" d="M467.533 955.577c-13.378 6.689-28.666 5.733-34.127-2.457-5.597-8.6 1.638-21.431 15.835-28.393 14.197-6.825 29.349-5.051 33.99 3.549 4.505 8.463-2.457 20.476-15.698 27.301z" />
<glyph unicode="&#xe644;" horiz-adv-x="997" d="M411.443 921.724c6.006 9.282-1.092 22.387-15.971 29.758-15.152 7.371-33.307 6.143-40.406-2.867-7.508-9.419-0.273-23.616 15.971-31.123 16.094-7.371 34.127-5.324 40.406 4.232z" />
<glyph unicode="&#xe645;" horiz-adv-x="997" d="M297.187 890.327c18.155-7.917 39.587-5.051 47.641 6.006 7.781 10.647 0.546 25.117-16.381 32.761-17.063 7.917-38.495 6.279-47.641-4.232-9.555-10.784-2.334-26.482 16.381-34.536z" />
<glyph unicode="&#xe646;" horiz-adv-x="997" d="M221.153 844.325c21.022-8.327 46.412-3.959 56.787 9.009 9.828 12.559 2.321 28.939-16.927 36.993-19.52 8.327-44.774 5.597-56.513-6.825-12.163-12.832-4.791-30.577 16.654-39.177z" />
<glyph unicode="&#xe647;" horiz-adv-x="997" d="M150.989 772.796c24.162-8.6 54.193-1.775 67.024 14.197 12.149 15.289 4.368 33.853-17.473 42.18-22.25 8.6-52.009 3.959-66.615-11.193-15.302-15.971-7.794-36.584 17.063-45.183z" />
<glyph unicode="&#xe648;" horiz-adv-x="997" d="M86.422 678.47c27.847-8.327 63.066 2.048 78.627 21.977 14.743 18.974 6.552 40.269-18.155 48.733-25.254 8.6-60.063 0.956-77.808-18.019-18.838-20.066-11.071-44.091 17.336-52.691z" />
<glyph unicode="&#xe649;" horiz-adv-x="997" d="M45.047 554.113c31.26-7.644 71.529 7.917 89.548 33.034 17.063 23.752 8.327 48.46-19.111 56.377-28.257 8.054-67.843-3.822-88.592-27.984-22.1-25.527-14.060-53.783 18.155-61.428z" />
<glyph unicode="&#xe64a;" horiz-adv-x="997" d="M131.455 458.968c18.565 29.349 9.282 57.469-20.612 64.431-30.714 7.235-73.85-10.101-96.919-40.269-24.435-32.079-15.971-64.84 19.52-71.12 34.4-6.143 78.354 15.835 98.011 46.958z" />
<glyph unicode="&#xe64b;" horiz-adv-x="997" d="M163.398 322.312c18.701 35.219 8.463 66.765-22.797 72.362-32.215 5.733-77.126-17.609-100.741-54.329-25.39-39.164-15.835-76.307 21.568-80.539 36.324-4.095 82.040 24.967 101.97 62.506z" />
<glyph unicode="&#xe64c;" horiz-adv-x="997" d="M223.201 269.361c-31.806 4.082-74.669-24.844-96.237-67.024-22.933-45.197-11.876-85.726 25.117-87.637 35.901-1.788 79.31 33.717 97.056 76.566 16.64 40.283 5.051 74.273-25.936 78.095z" />
<glyph unicode="&#xe64d;" horiz-adv-x="997" d="M317.936 169.985c-30.577 2.457-69.891-30.577-88.183-76.457-19.657-49.265-6.825-91.732 28.666-91.732 34.263 0.15 73.85 40.133 88.319 86.695 13.637 43.668 0.805 79.023-28.803 81.494z" />
<glyph unicode="&#xe64e;" horiz-adv-x="997" d="M442.553 112.652c-27.574 1.638-60.745-32.352-73.986-78.491-14.060-49.265 0.273-90.913 31.942-89.957 30.714 0.956 63.612 41.634 73.577 88.183 9.419 43.818-4.628 78.764-31.533 80.266z" />
<glyph unicode="&#xe64f;" horiz-adv-x="997" d="M564.603 95.453c-24.298 1.365-50.917-31.26-59.394-74.942-8.873-46.549 6.416-85.453 33.99-84.484 26.755 0.942 52.691 39.45 58.302 83.528 5.447 41.634-9.146 74.669-32.898 75.897z" />
<glyph unicode="&#xe650;" horiz-adv-x="997" d="M683.909 112.652c-20.899 1.365-41.375-27.847-45.32-67.161-4.368-41.498 11.193-76.566 34.4-76.17 22.523 0.396 42.044 34.522 43.969 74.246 1.897 37.689-12.845 67.857-33.048 69.086z" />
<glyph unicode="&#xe651;" horiz-adv-x="997" d="M776.187 152.922c-18.019 1.638-33.731-23.752-34.959-58.302-1.229-36.311 14.060-67.42 33.731-67.693 19.247-0.423 33.976 28.926 33.567 63.885-0.532 33.171-14.879 60.336-32.338 62.11z" />
<glyph unicode="&#xe652;" horiz-adv-x="997" d="M845.122 202.064c-15.698 2.184-28.12-19.657-27.451-49.811 0.696-31.669 15.302-59.244 32.215-60.336 16.654-0.956 28.12 24.025 26.223 54.602-1.911 29.199-15.562 53.497-30.987 55.544z" />
<glyph unicode="&#xe653;" horiz-adv-x="997" d="M898.087 263.205c-13.787 2.471-23.752-15.821-21.964-41.894 1.897-27.015 15.548-51.326 30.291-52.964 14.483-1.638 23.616 19.111 20.763 45.457-2.757 25.254-15.575 46.944-29.089 49.402z" />
<glyph unicode="&#xe654;" horiz-adv-x="997" d="M936.172 326.011c-12.149 2.73-20.339-12.408-17.882-34.809 2.457-23.206 15.275-44.501 28.243-46.685 12.709-2.184 20.066 15.016 16.927 37.539-3.126 21.841-15.289 41.211-27.288 43.955z" />
<glyph unicode="&#xe655;" horiz-adv-x="997" d="M959.515 392.217c-11.071 3.126-18.019-9.419-15.289-28.53 2.594-19.807 14.47-38.631 26.073-41.238 11.33-2.73 17.609 11.467 14.333 30.85-3.29 18.715-14.333 35.915-25.117 38.918z" />
<glyph unicode="&#xe656;" horiz-adv-x="997" d="M972.469 457.74c-9.951 3.413-16.108-6.825-13.364-23.343 2.73-16.927 13.514-33.58 24.039-36.57 10.238-3.017 15.835 8.45 12.559 25.254-3.167 16.094-13.405 31.519-23.233 34.659z" />
<glyph unicode="&#xe657;" horiz-adv-x="997" d="M974.38 521.625c-9.146 3.413-14.743-4.914-12.286-19.111 2.594-14.606 12.559-29.485 22.128-32.761 9.542-3.276 14.592 6.143 11.603 20.612-2.88 13.924-12.422 27.847-21.445 31.26z" />
<glyph unicode="&#xe658;" horiz-adv-x="997" d="M970.012 581.687c-8.586 3.549-13.787-3.276-11.603-15.562 2.321-12.695 11.603-26.073 20.476-29.485s13.651 4.232 11.071 16.79c-2.594 12.149-11.467 24.708-19.944 28.257z" />
<glyph unicode="&#xe659;" horiz-adv-x="997" d="M968.251 595.611c8.313-3.549 12.954 2.73 10.634 13.787-2.321 10.784-10.511 22.25-18.551 25.936-8.204 3.686-13.255-1.911-11.193-12.695 2.048-11.193 10.634-23.479 19.111-27.028z" />
<glyph unicode="&#xe65a;" horiz-adv-x="997" d="M102.243 494.555c32.625-0.41 66.751-26.209 76.989-58.152 10.374-32.639-7.371-60.472-40.679-61.564-34.127-1.229-70.574 25.8-80.402 60.049-9.555 33.458 10.497 59.94 44.091 59.667z" />
<glyph unicode="&#xe65b;" horiz-adv-x="997" d="M383.309 491.689c26.209-0.273 55.967-23.343 67.161-52.009 11.33-29.076-0.273-53.783-26.755-54.602-27.028-1.092-58.561 23.056-69.618 53.497-10.92 29.772 2.457 53.388 29.212 53.114z" />
<glyph unicode="&#xe65c;" horiz-adv-x="997" d="M247.076 493.054c29.212-0.273 61.018-24.708 71.802-55.012 11.057-30.714-3.413-56.923-33.171-58.015-30.304-1.078-64.158 24.585-74.805 56.8-10.388 31.519 6.279 56.5 36.174 56.227z" />
<glyph unicode="&#xe65d;" horiz-adv-x="997" d="M657.536-9.288c-14.197 35.355-4.901 67.721 19.93 72.498 24.298 4.778 54.889-18.428 69.072-52.145 14.483-34.263 7.112-67.57-17.336-73.986-24.844-6.566-57.319 17.596-71.666 53.633z" />
<glyph unicode="&#xe65e;" horiz-adv-x="997" d="M478.317 440.089c-11.33 28.257-0.41 50.644 23.752 50.507 23.616-0.273 51.613-22.25 63.079-49.415 11.603-27.697 2.321-51.053-21.431-51.872-24.448-0.819-53.947 21.977-65.4 50.78z" />
<glyph unicode="&#xe65f;" horiz-adv-x="997" d="M534.012 300.294c-12.013 30.441-1.638 55.694 22.797 56.923 23.889 1.242 52.691-21.145 64.977-50.357 12.422-29.622 3.699-55.831-20.326-58.288-24.598-2.594-55.039 20.749-67.448 51.722z" />
<glyph unicode="&#xe660;" horiz-adv-x="997" d="M594.061 149.741c-13.091 32.761-3.126 61.428 21.431 64.294 24.162 2.867 53.77-19.93 67.024-51.19 13.514-31.956 5.337-61.578-18.838-65.796-24.844-4.491-56.227 19.398-69.618 52.691z" />
<glyph unicode="&#xe661;" horiz-adv-x="997" d="M314.237 138.807c13.924 28.816 49.552 33.185 79.72 10.798 30.031-22.401 44.774-63.885 32.761-93.643-12.422-30.864-48.596-37.689-80.539-14.333-32.093 23.479-46.276 67.434-31.942 97.179z" />
<glyph unicode="&#xe662;" horiz-adv-x="997" d="M427.796 381.801c10.511 21.841 40.269 22.66 66.342 2.457 26.059-20.066 39.71-54.329 30.564-76.989-9.405-23.206-39.45-25.663-66.874-4.791-27.561 21.049-40.938 56.8-30.031 79.324z" />
<glyph unicode="&#xe663;" horiz-adv-x="997" d="M371.023 264.679c12.149 25.117 44.637 27.574 72.758 6.279 27.984-21.295 42.18-58.957 31.669-84.907-10.784-26.769-43.818-31.274-73.304-9.146-29.895 22.237-43.696 61.96-31.123 87.773z" />
<glyph unicode="&#xe664;" horiz-adv-x="997" d="M401.737 905.575c9.009-20.885 33.58-40.952 54.602-44.501 20.612-3.549 29.485 10.238 20.203 30.441-9.009 20.066-32.488 39.45-52.964 43.545-20.763 4.095-30.728-8.873-21.841-29.485z" />
<glyph unicode="&#xe665;" horiz-adv-x="997" d="M490.589 699.587c10.238-23.616 36.174-44.364 57.469-46.276 21.008-1.638 29.212 15.562 18.974 38.358-10.238 22.523-34.946 42.59-55.831 45.047-21.158 2.594-30.577-13.924-20.612-37.13z" />
<glyph unicode="&#xe666;" horiz-adv-x="997" d="M444.313 806.745c9.555-22.114 34.809-42.59 55.967-45.32 20.885-2.73 29.499 12.695 19.657 34.263-9.555 21.158-33.717 40.815-54.329 44.228-21.022 3.413-30.714-11.33-21.295-33.171z" />
<glyph unicode="&#xe667;" horiz-adv-x="997" d="M822.572 607.992c-16.654 1.229-21.431-15.289-10.374-37.13 11.071-22.114 33.853-40.542 50.507-41.088 16.244-0.546 20.066 16.517 8.859 37.949-10.907 21.158-32.734 39.177-48.992 40.269z" />
<glyph unicode="&#xe668;" horiz-adv-x="997" d="M559.675 627.103c-21.309 1.502-30.441-16.927-19.793-41.771 10.92-25.117 37.539-46.276 59.107-46.958 21.158-0.683 28.939 18.565 18.019 42.863-10.92 23.889-36.311 44.364-57.333 45.866z" />
<glyph unicode="&#xe669;" horiz-adv-x="997" d="M655.625 620.141c-19.643 1.365-27.015-16.381-16.231-40.133 11.071-23.889 36.311-44.228 55.967-44.774 19.247-0.683 25.54 17.882 14.483 41.088-10.934 22.933-34.973 42.453-54.22 43.818z" />
<glyph unicode="&#xe66a;" horiz-adv-x="997" d="M743.398 613.725c-17.882 1.365-23.889-15.835-12.968-38.495 11.071-22.933 35.082-42.317 52.978-42.863 17.732-0.683 22.646 17.2 11.603 39.45-11.071 21.977-33.99 40.679-51.613 41.907z" />
<glyph unicode="&#xe66b;" horiz-adv-x="997" d="M633.251 812.068c-5.883-12.013 5.31-35.219 25.117-51.463 19.643-16.108 39.723-18.838 44.897-6.279 5.064 12.286-6.266 34.809-25.254 50.507s-39.027 18.974-44.76 7.235z" />
<glyph unicode="&#xe66c;" horiz-adv-x="997" d="M573.189 688.803c-7.098-14.743 4.778-41.225 26.755-58.971 21.841-17.473 44.651-19.111 50.903-3.822 6.143 15.016-5.993 40.679-26.892 57.606-21.022 17.063-43.682 19.52-50.767 5.187z" />
<glyph unicode="&#xe66d;" horiz-adv-x="997" d="M604.995 754.19c-6.429-13.378 5.187-38.085 25.936-54.875 20.749-16.927 42.030-19.111 47.627-5.324 5.597 13.651-6.143 37.539-25.922 53.783-19.944 16.381-41.225 19.384-47.641 6.416z" />
<glyph unicode="&#xe66e;" horiz-adv-x="997" d="M360.239 913.219c8.873-21.158-2.048-35.355-24.844-31.533-23.206 4.095-49.415 25.254-58.152 47.095-8.463 21.431 3.549 34.946 26.619 30.304 22.523-4.505 47.504-24.844 56.377-45.866z" />
<glyph unicode="&#xe66f;" horiz-adv-x="997" d="M448.149 703.819c10.101-23.889-0.273-42.044-23.616-39.996-23.889 1.911-51.599 24.025-61.428 48.733-9.692 24.435 1.911 41.771 25.527 38.904 23.192-2.73 49.552-23.889 59.517-47.641z" />
<glyph unicode="&#xe670;" horiz-adv-x="997" d="M402.406 812.887c9.419-22.523-1.229-38.495-24.298-35.492-23.616 3.003-50.507 24.708-59.79 47.914-9.009 22.933 2.867 38.085 26.209 34.263 22.81-3.686 48.473-24.435 57.879-46.685z" />
<glyph unicode="&#xe671;" horiz-adv-x="997" d="M46.125 664.369c31.942-2.321 64.84-27.438 74.123-56.787 9.419-29.758-8.6-53.374-41.088-52.282-33.307 1.092-68.253 27.574-77.126 58.561-8.736 30.577 11.48 52.964 44.091 50.507z" />
<glyph unicode="&#xe672;" horiz-adv-x="997" d="M435.864 636.112c23.343-1.775 50.507-23.206 61.155-48.46 10.784-25.663 0.683-46.003-22.933-45.183-24.162 0.683-52.691 23.206-63.202 49.688-10.388 26.209 1.092 45.73 24.981 43.955z" />
<glyph unicode="&#xe673;" horiz-adv-x="997" d="M318.196 644.712c25.936-1.911 54.739-24.571 64.977-51.053 10.511-26.892-1.775-48.187-27.984-47.368-26.755 0.819-57.196 24.571-67.297 52.418-9.979 27.438 3.822 47.914 30.304 46.003z" />
<glyph unicode="&#xe674;" horiz-adv-x="997" d="M187.969 654.131c28.666-2.048 59.38-25.936 69.209-53.783 10.101-28.257-4.778-50.644-33.99-49.688-29.758 0.956-62.247 25.936-71.939 55.285-9.419 28.939 7.371 50.234 36.72 48.187z" />
<glyph unicode="&#xe675;" horiz-adv-x="997" d="M126.268 894.518c25.254-20.066 35.082-47.777 21.704-62.383-13.651-15.016-46.549-10.647-73.031 10.238-26.755 20.885-35.901 49.688-20.885 63.885 14.592 13.787 46.822 8.327 72.212-11.74z" />
<glyph unicode="&#xe676;" horiz-adv-x="997" d="M357.919 710.644c24.162-19.247 35.628-47.777 25.527-64.431-10.511-17.063-39.587-15.016-64.977 4.914-25.527 19.93-36.72 49.825-24.981 66.069 11.33 15.835 40.119 12.695 64.431-6.552z" />
<glyph unicode="&#xe677;" horiz-adv-x="997" d="M242.162 802.649c24.708-19.657 35.219-47.914 23.479-63.475-12.013-16.108-42.999-12.968-68.936 7.508-26.073 20.476-36.311 49.825-22.933 64.977 12.968 14.879 43.532 10.647 68.39-9.009z" />
<glyph unicode="&#xe678;" horiz-adv-x="997" d="M880.054 486.775c-16.667 0.137-21.036-18.428-9.16-41.907 11.876-23.616 35.369-42.59 52.009-42.044 16.394 0.683 19.657 19.93 7.781 42.863-11.862 22.66-34.263 40.952-50.63 41.088z" />
<glyph unicode="&#xe679;" horiz-adv-x="997" d="M711.742 488.413c-19.807 0.273-26.905-20.066-15.166-45.593 11.89-25.922 37.962-46.685 57.879-46.003 19.384 0.696 25.267 21.841 13.255 46.822-11.753 24.708-36.584 44.637-55.967 44.774z" />
<glyph unicode="&#xe67a;" horiz-adv-x="997" d="M802.928 487.594c-18.019 0.137-23.493-19.247-11.74-43.682 11.876-24.708 36.597-44.501 54.602-43.818 17.746 0.683 22.114 20.749 10.238 44.637-11.753 23.616-35.355 42.59-53.101 42.863z" />
<glyph unicode="&#xe67b;" horiz-adv-x="997" d="M859.851 36.987c-14.197 31.669-42.877 53.51-64.444 49.402-21.964-4.355-28.789-34.4-14.592-67.557 14.47-33.594 44.774-56.527 66.751-50.657 21.691 5.733 26.892 36.597 12.286 68.813z" />
<glyph unicode="&#xe67c;" horiz-adv-x="997" d="M676.797 442.547c-11.726 25.8-37.949 46.685-59.244 46.822-21.704 0.273-30.318-21.022-18.851-47.777 11.753-27.165 39.464-48.869 61.155-48.187 21.445 0.819 28.666 22.919 16.94 49.142z" />
<glyph unicode="&#xe67d;" horiz-adv-x="997" d="M734.116 315.459c-12.408 27.588-39.437 48.733-60.868 47.641-21.841-1.092-29.895-24.981-17.623-53.661 12.572-29.062 41.102-51.19 62.943-48.869 21.568 2.184 28.243 26.905 15.548 54.889z" />
<glyph unicode="&#xe67e;" horiz-adv-x="997" d="M795.543 179.499c-13.364 29.485-41.088 51.19-62.656 48.61-21.964-2.594-29.485-29.485-16.231-60.199 13.514-31.41 42.877-53.783 64.84-49.961 21.568 3.945 27.561 31.533 14.046 61.551z" />
<glyph unicode="&#xe67f;" horiz-adv-x="997" d="M961.958 226.444c-21.718 17.213-42.044 14.606-45.607-6.129-3.413-21.309 12.013-53.51 34.673-71.27 22.523-17.732 42.877-13.787 45.457 8.068 2.457 21.418-12.968 52.132-34.522 69.331z" />
<glyph unicode="&#xe680;" horiz-adv-x="997" d="M756.503 394.087c-22.523 17.732-45.593 17.2-51.586-2.048-6.293-19.52 7.767-50.917 31.383-69.345 23.493-18.428 46.685-16.517 51.749 3.686 5.037 19.793-9.146 49.825-31.547 67.707z" />
<glyph unicode="&#xe681;" horiz-adv-x="997" d="M863.401 306.86c-21.964 17.473-43.682 15.835-48.323-4.095-4.791-20.626 9.951-52.282 33.034-70.437 23.070-18.005 44.651-15.152 48.46 6.006 3.686 20.612-11.207 51.067-33.171 68.526z" />
<glyph unicode="&#xe682;" horiz-adv-x="997" d="M554.367 649.573c-6.129 15.014-22.644 28.664-36.84 30.574-14.468 1.911-21.429-8.872-15.287-24.296 6.142-15.56 23.067-29.483 37.686-30.984 14.304-1.638 20.597 9.555 14.441 24.705zM511.099 728.057c-7.371 18.154-27.708 35.215-45.725 38.218-18.29 3.003-27.435-9.418-20.201-28.118 7.371-18.836 28.527-36.307 46.954-38.901 18.017-2.457 26.493 10.51 18.973 28.8zM489.26 823.739c-8.736 21.429-33.441 42.313-55.416 46.954-22.521 4.777-34.123-9.009-25.388-31.12 8.736-22.248 34.533-43.951 57.191-48.046 22.112-3.958 32.499 10.646 23.613 32.212zM543.994 883.932c-10.769 24.705-39.447 49.411-64.834 55.689-25.934 6.415-39.037-8.872-28.527-34.396 10.646-26.070 41.084-51.867 67.278-57.327 25.552-5.323 36.88 10.919 26.084 36.034zM439.863 556.894c-16.379 1.228-24.842-11.875-18.427-29.346 6.415-17.608 25.251-32.622 41.767-33.441 16.379-0.819 24.023 12.694 17.608 29.892-6.552 16.925-24.705 31.666-40.948 32.895zM357.421 548.432c-22.248 1.501-34.26-15.697-26.48-38.764 7.917-23.204 32.895-42.859 55.416-43.541 21.975-0.819 32.895 17.062 24.705 39.583-7.917 22.248-31.803 41.221-53.642 42.722zM219.427 582.282c-30.984 2.32-49.274-19.792-39.993-49.957 9.282-30.574 42.995-56.645 74.389-57.737 30.574-1.092 46.817 22.112 37.126 51.458-9.705 28.8-41.357 53.778-71.522 56.235zM60.944 716.728c-41.903 5.187-68.929-20.201-58.829-57.6 10.373-38.218 54.597-72.341 97.456-75.481 41.494-3.139 64.971 24.296 53.778 60.33-10.906 35.488-51.581 67.701-92.406 72.751zM614.561 373.052c7.111-17.894 25.115-32.076 39.856-31.803 14.482 0.396 20.338 14.741 13.117 32.199-6.961 17.198-24.296 31.12-38.764 31.271-14.741 0.136-21.17-14.072-14.209-31.666zM664.518 279.813c9.282-23.204 31.939-41.084 50.093-39.72 17.894 1.365 24.446 20.747 15.151 43.132-9.282 22.248-30.847 39.583-48.714 39.023-18.154-0.655-25.674-19.505-16.529-42.436zM697.412 144.548c12.421-31.257 41.644-53.915 64.834-50.352 22.521 3.412 30.315 30.561 18.017 60.33-12.284 29.483-39.993 51.321-62.514 49.26-23.054-2.184-32.472-28.527-20.338-59.238zM638.052 3.551c16.106-43.664 56.085-73.706 88.025-66.472 30.998 7.111 41.903 46.544 25.674 87.492-16.106 40.402-53.11 68.929-83.943 64.425-31.817-4.641-45.602-42.722-29.756-85.445zM712.427 482.506c12.83-0.682 17.758 11.329 10.933 26.753-6.552 15.287-22.262 28.254-35.215 29.21-12.967 0.955-18.29-10.783-11.725-26.343 6.661-15.697 22.917-29.073 36.007-29.619zM771.678 492.21c15.014-0.819 20.187 13.513 11.875 31.939-8.19 18.29-26.903 33.987-42.040 35.215-15.151 1.365-21.17-12.694-12.83-31.393 8.326-18.85 27.708-34.956 42.995-35.761zM862.037 468.324c17.198-0.819 22.385 16.789 11.861 38.901-10.373 21.975-32.472 40.675-49.684 42.176-17.608 1.501-23.736-15.424-13.363-38.082 10.496-22.945 33.564-42.327 51.185-42.995zM972.46 369.366c19.928 0.136 24.719 23.19 11.070 51.035-13.513 27.435-40.279 50.093-60.344 51.048-20.474 0.955-26.616-21.156-13.103-49.82 13.636-28.937 41.903-52.536 62.377-52.263z" />
<glyph unicode="&#xe683;" horiz-adv-x="997" d="M441.078 604.667c15.697-12.83 33.714-14.468 40.266-3.822 6.415 10.237-0.819 28.664-15.97 41.084-15.287 12.421-33.168 14.605-39.993 4.504-7.084-10.237 0.014-29.073 15.697-41.767z" />
<glyph unicode="&#xe684;" horiz-adv-x="997" d="M379.806 698.984c-19.655 15.97-43.405 19.246-53.096 6.961-9.964-12.421-1.638-36.171 18.836-52.686 20.201-16.516 44.224-18.973 53.369-6.006 8.995 12.694 0.396 35.775-19.109 51.731z" />
<glyph unicode="&#xe685;" horiz-adv-x="997" d="M231.834 748.667c26.070-21.156 57.737-25.524 70.567-10.237 12.421 14.878 2.32 42.995-22.521 63.333-24.842 20.474-56.099 25.934-69.885 11.875-14.059-14.468-4.368-43.814 21.839-64.971z" />
<glyph unicode="&#xe686;" horiz-adv-x="997" d="M267.049 860.046c15.56 16.106 3.685 48.865-26.207 73.706-30.165 25.115-68.383 33.85-85.854 18.973-17.881-15.424-6.688-49.684 25.388-75.89 31.803-26.057 70.717-33.304 86.673-16.789z" />
<glyph unicode="&#xe687;" horiz-adv-x="997" d="M543.462 440.193c-15.97 12.694-34.123 13.24-40.811 0.955-6.688-12.544 1.092-33.304 17.457-46.271 16.393-12.953 34.683-12.953 40.811-0.136 6.142 12.557-1.774 32.772-17.457 45.452z" />
<glyph unicode="&#xe688;" horiz-adv-x="997" d="M534.166 363.62c-20.61 16.243-44.36 16.243-53.232-0.546-9.009-17.198 0.955-45.043 22.521-61.695 21.293-16.666 45.316-15.574 53.369 2.047 8.053 17.212-2.184 44.087-22.658 60.194z" />
<glyph unicode="&#xe689;" horiz-adv-x="997" d="M476.307 284.331c-27.435 21.293-60.057 20.065-72.887-3.412-13.24-24.159-0.409-62.255 28.664-84.353 28.937-21.975 61.831-18.85 73.297 6.129 11.315 24.296-1.774 60.467-29.073 81.637z" />
<glyph unicode="&#xe68a;" horiz-adv-x="997" d="M323.967 288.003c-37.399 28.391-84.080 26.903-104.69-4.504-21.566-32.485-6.552-84.216 33.85-113.972 39.993-29.483 87.492-24.582 105.919 9.404 17.744 32.772 1.788 80.968-35.079 109.072z" />
<glyph unicode="&#xe68b;" horiz-adv-x="997" d="M716.658 436.098c-14.332 11.616-29.756 12.162-34.396 0.833-4.914-11.465 3.126-30.711 17.881-42.586 14.591-11.875 30.029-11.875 34.41-0.136 4.218 11.602-3.699 30.288-17.894 41.89z" />
<glyph unicode="&#xe68c;" horiz-adv-x="997" d="M796.111 396.242c-17.198 14.209-35.352 14.482-40.416 0.15-5.31-14.468 4.927-38.218 22.808-52.823 17.881-14.482 36.034-13.922 40.539 0.955 4.491 14.605-5.746 37.659-22.931 51.717z" />
<glyph unicode="&#xe68d;" horiz-adv-x="997" d="M920.306 250.33c4.368 19.109-9.009 48.168-29.878 65.38-21.034 17.348-42.449 16.652-47.773-1.911-5.596-18.986 7.78-49.274 29.878-67.155 21.839-17.744 43.132-15.82 47.773 3.685z" />
<glyph unicode="&#xe68e;" horiz-adv-x="997" d="M956.217 185.1c-26.903 21.839-53.656 19.095-59.661-6.825-6.415-26.766 11.465-67.578 39.856-90.099 28.254-22.385 54.734-17.471 59.511 10.087 4.654 26.78-13.226 65.271-39.706 86.837z" />
<glyph unicode="&#xe68f;" horiz-adv-x="997" d="M636.823 622.684c-13.786 11.465-29.087 13.24-34.26 3.822-5.064-9.691 2.184-27.026 16.366-38.764 14.059-11.738 29.346-13.103 34.123-3.276 4.777 9.691-2.58 26.753-16.229 38.218z" />
<glyph unicode="&#xe690;" horiz-adv-x="997" d="M645.695 687.791c-16.529 14.059-34.956 16.789-41.098 6.006-6.279-11.056 2.593-31.803 19.792-46.135 17.062-14.332 35.488-16.516 41.084-5.050 5.61 11.056-3.276 31.257-19.778 45.179z" />
<glyph unicode="&#xe691;" horiz-adv-x="997" d="M664.381 695.299c20.201-17.198 41.781-20.201 47.909-7.098 6.142 12.83-4.641 36.444-24.159 53.096-19.519 16.789-40.948 20.61-47.909 8.326-7.098-12.557 3.685-36.99 24.159-54.324z" />
<glyph unicode="&#xe692;" horiz-adv-x="997" d="M814.797 666.908c6.006 15.424-7.644 43.678-30.424 63.333-22.931 19.928-47.227 24.432-54.311 9.691-7.384-15.151 6.129-44.497 30.302-65.107 23.873-20.474 48.168-23.75 54.434-7.917z" />
</font>
</defs>
</svg>
